<svg 
    xmlns="http://www.w3.org/2000/svg"
    viewBox="0 0 512 512"
>
	<g>
		<path d="m300.407 75.941v-57.421c0-10.212-8.593-18.52-19.155-18.52s-19.156 8.308-19.156 18.52v57.422h38.311z"/>
		<path d="m330.407 75.941h38.312v-57.421c0-10.212-8.593-18.52-19.155-18.52s-19.156 8.308-19.156 18.52v57.421z"/>
		<path d="m398.719 100.965c0 10.212 8.594 18.52 19.156 18.52s19.155-8.308 19.155-18.52v-63.194c0-10.212-8.593-18.52-19.155-18.52s-19.156 8.308-19.156 18.52z"/>
		<path d="m467.03 120.217c0 10.211 8.594 18.519 19.156 18.519s19.155-8.308 19.155-18.519v-63.196c0-10.211-8.593-18.519-19.155-18.519s-19.156 8.308-19.156 18.519z"/>
		<path d="m449.405 256.685c14.142-7.682 22.926-22.023 22.926-37.429v-52.263c0-.078.01-.153.012-.23-12.83-3.724-23.493-12.479-29.637-23.95-7.293 4.232-15.777 6.671-24.831 6.671-12.182 0-23.335-4.406-31.932-11.677-16.495 28.022-47.297 46.913-82.5 46.913h-9.754c-8.284 0-15-6.716-15-15s6.716-15 15-15h9.754c30.707 0 56.53-20.824 63.452-48.779h-121.462c-6.796 0-12.324 5.301-12.324 11.815v93.025c0 27.567 21.56 49.966 49.083 50.993 8.062.301 14.441 6.924 14.44 14.99l-.005 51.974h144.933l.005-58.875c0-5.497 3.009-10.554 7.84-13.178z"/>
		<path d="m301.005 507.606c2.833 2.833 6.601 4.394 10.607 4.394h114.935c8.271 0 14.999-6.729 15-14.999l.001-15.832h-144.934l-.001 15.829c-.001 4.008 1.559 7.774 4.392 10.608z"/>
		<path d="m250.341 358.741c-8.284 0-15 6.716-15 15v18.057h-58.426c-6.2-17.554-22.95-30.171-42.6-30.171h-23.101c-19.65 0-36.4 12.616-42.6 30.171h-46.956c-8.284 0-15 6.716-15 15s6.716 15 15 15h46.956c6.2 17.554 22.95 30.171 42.6 30.171h23.101c19.65 0 36.4-12.616 42.6-30.171h58.426v14.369c0 8.284 6.716 15 15 15h233.079c8.284 0 15-6.716 15-15v-62.426c0-8.284-6.716-15-15-15zm-154.298 48.057c0-8.365 6.806-15.171 15.171-15.171h23.101c8.365 0 15.171 6.806 15.171 15.171s-6.806 15.171-15.171 15.171h-23.101c-8.365 0-15.171-6.806-15.171-15.171z"/>
	</g>
</svg>