<svg
    xmlns="http://www.w3.org/2000/svg"
    viewBox="0 0 512 512"
>
	<g>
		<g id="Family_violence_1_">
			<g>
				<path d="m211 166c0-16.948 5.865-32.426 15.383-45h-75.383v45z"/>
				<path d="m151 196h60v45h-60z"/>
				<path d="m151 346h60v45h-60z"/>
				<path d="m151 271h60v45h-60z"/>
			</g>
			<path d="m405.692 151c-13.872-18.706-36.021-30-59.692-30h-60c-24.814 0-45 20.186-45 45v75h15c24.814 0 45-20.186 45-45h30c0 41.353 33.647 75 75 75h15v30h-15c-40.327 0-75.425-22.852-93.003-56.294-13.769 16.084-34.219 26.294-56.997 26.294h-15v120h105c23.672 0 45.82-11.294 59.692-30h106.308v-210z"/>
		</g>
		<path d="m419.228 391c-19.351 18.999-45.732 30-73.228 30-5.846 0-240.479 0-225 0v-330c22.114 0 229.022 0 225 0 27.495 0 53.877 11.001 73.228 30h18.285l-1.337-45.176-64.658-1.904c-25.605-1.055-49.761-11.118-68.115-28.418l-47.403-45.502-47.49 45.59c-18.267 17.212-42.422 27.275-67.852 28.315l-64.834 1.919-1.904 64.658c-1.055 25.605-11.118 49.761-28.418 68.115l-45.502 47.403 45.59 47.49c17.212 18.267 27.275 42.422 28.315 67.852l1.919 64.834 64.658 1.904c25.605 1.055 49.761 11.118 68.115 28.418l47.403 45.502 47.49-45.59c18.267-17.212 42.422-27.275 67.852-28.315l64.834-1.919 1.329-45.176z"/>
	</g>
</svg>