<svg
	xmlns="http://www.w3.org/2000/svg"
    viewBox="0 0 48 48"
>
	<path d="m45 8c0 .431-.275.813-.684.949-3.059 1.019-11.02 2.051-20.316 2.051-9.299 0-17.259-1.032-20.316-2.051-.408-.136-.684-.519-.684-.949 0-.431.275-.813.684-.949 3.058-1.019 11.018-2.051 20.316-2.051s17.258 1.032 20.316 2.051c.409.137.684.519.684.949zm-20.071 15.628c-.152-.379-.52-.628-.929-.628s-.776.249-.929.628c-.555 1.387-1.329 2.722-2.078 4.012-1.471 2.538-2.993 5.161-2.993 8.36 0 4.122 2.468 7 6 7s6-2.878 6-7c0-3.199-1.521-5.822-2.993-8.359-.749-1.291-1.523-2.626-2.078-4.013zm14-10c-.152-.379-.52-.628-.929-.628s-.776.249-.929.628c-.555 1.387-1.329 2.722-2.078 4.012-1.471 2.538-2.993 5.161-2.993 8.36 0 4.122 2.468 7 6 7s6-2.878 6-7c0-3.199-1.521-5.822-2.993-8.359-.749-1.291-1.523-2.626-2.078-4.013zm-28 0c-.152-.379-.52-.628-.929-.628s-.776.249-.929.628c-.555 1.387-1.329 2.722-2.078 4.012-1.471 2.538-2.993 5.161-2.993 8.36 0 4.122 2.468 7 6 7s6-2.878 6-7c0-3.199-1.521-5.822-2.993-8.359-.749-1.291-1.523-2.626-2.078-4.013z"/>
</svg>